HIERARCHY
ROOT Hips
{
	OFFSET 0.000000 71.427986 0.000000
	CHANNELS 6 Xposition Yposition Zposition Xrotation Yrotation Zrotation
	JOINT Pelvis
	{
		OFFSET 0.000000 0.000000 0.000000
		CHANNELS 3 Xrotation Yrotation Zrotation
		JOINT LeftUpLeg
		{
			OFFSET 6.797100 -2.508499 -1.318700
			CHANNELS 3 Xrotation Yrotation Zrotation
			JOINT LeftLeg
			{
				OFFSET 0.069008 -29.241863 0.690200
				CHANNELS 3 Xrotation Yrotation Zrotation
				JOINT LeftFoot
				{
					OFFSET -0.069008 -29.568123 -0.266800
					CHANNELS 3 Xrotation Yrotation Zrotation
					JOINT LeftToeBase
					{
						OFFSET 3.145500 -8.631000 16.059900
						CHANNELS 3 Xrotation Yrotation Zrotation
						End Site
						{
							OFFSET 0.000000 18.501587 0.000000
						}
					}
				}
			}
			JOINT Left_ShortSleeve
			{
				OFFSET 0.265923 -10.480953 1.153800
				CHANNELS 3 Xrotation Yrotation Zrotation
				End Site
				{
					OFFSET 1.725763 19.823879 0.000000
				}
			}
		}
		JOINT RightUpLeg
		{
			OFFSET -6.797100 -2.508499 -1.318700
			CHANNELS 3 Xrotation Yrotation Zrotation
			JOINT RightLeg
			{
				OFFSET -0.082453 -29.241932 0.688000
				CHANNELS 3 Xrotation Yrotation Zrotation
				JOINT RightFoot
				{
					OFFSET 0.082453 -29.568058 -0.264600
					CHANNELS 3 Xrotation Yrotation Zrotation
					JOINT RightToeBase
					{
						OFFSET -3.115300 -8.682800 16.113400
						CHANNELS 3 Xrotation Yrotation Zrotation
						End Site
						{
							OFFSET 0.000000 18.567114 0.000000
						}
					}
				}
			}
			JOINT Right_ShortSleeve
			{
				OFFSET -0.265923 -10.480953 1.153800
				CHANNELS 3 Xrotation Yrotation Zrotation
				End Site
				{
					OFFSET -1.725766 19.823910 0.000000
				}
			}
		}
	}
	JOINT Spine
	{
		OFFSET 0.000000 13.368103 0.470500
		CHANNELS 3 Xrotation Yrotation Zrotation
		JOINT Spine1
		{
			OFFSET 0.147000 13.837402 0.538800
			CHANNELS 3 Xrotation Yrotation Zrotation
			JOINT Spine2
			{
				OFFSET 0.168000 16.242897 -1.435500
				CHANNELS 3 Xrotation Yrotation Zrotation
				JOINT Neck
				{
					OFFSET 0.217200 18.631500 -1.679100
					CHANNELS 3 Xrotation Yrotation Zrotation
					JOINT Head
					{
						OFFSET 0.000000 6.599396 1.385900
						CHANNELS 3 Xrotation Yrotation Zrotation
						JOINT Hat
						{
							OFFSET -0.532200 27.220596 -10.096100
							CHANNELS 3 Xrotation Yrotation Zrotation
							End Site
							{
								OFFSET 0.000000 22.029861 0.000000
							}
						}
						JOINT HairD
						{
							OFFSET -10.777400 17.437393 -1.325900
							CHANNELS 3 Xrotation Yrotation Zrotation
							JOINT HairD1
							{
								OFFSET -3.290299 -11.051193 1.062200
								CHANNELS 3 Xrotation Yrotation Zrotation
								End Site
								{
									OFFSET 0.000000 11.579437 0.000000
								}
							}
						}
						JOINT HairB
						{
							OFFSET -10.777400 17.437393 1.467900
							CHANNELS 3 Xrotation Yrotation Zrotation
							JOINT HairB1
							{
								OFFSET -1.561200 -12.956299 3.590200
								CHANNELS 3 Xrotation Yrotation Zrotation
								End Site
								{
									OFFSET 0.000000 13.534866 0.000000
								}
							}
						}
						JOINT HairA
						{
							OFFSET 9.713100 17.437393 1.467900
							CHANNELS 3 Xrotation Yrotation Zrotation
							JOINT HairA1
							{
								OFFSET 1.561200 -12.956299 3.590200
								CHANNELS 3 Xrotation Yrotation Zrotation
								End Site
								{
									OFFSET 0.000000 13.534866 0.000000
								}
							}
						}
						JOINT HairC
						{
							OFFSET 9.713100 17.437393 -1.325900
							CHANNELS 3 Xrotation Yrotation Zrotation
							JOINT HairC1
							{
								OFFSET 3.290300 -11.051193 1.062200
								CHANNELS 3 Xrotation Yrotation Zrotation
								End Site
								{
									OFFSET 0.000000 11.579437 0.000000
								}
							}
						}
					}
				}
				JOINT LeftShoulder
				{
					OFFSET 5.101800 15.108002 -2.763700
					CHANNELS 3 Xrotation Yrotation Zrotation
					JOINT LeftArm
					{
						OFFSET 9.825497 2.506317 -1.597400
						CHANNELS 3 Xrotation Yrotation Zrotation
						JOINT LeftForeArm
						{
							OFFSET 21.966244 0.000000 0.000000
							CHANNELS 3 Xrotation Yrotation Zrotation
							JOINT LeftHand
							{
								OFFSET 33.879036 0.000000 0.000000
								CHANNELS 3 Xrotation Yrotation Zrotation
								JOINT LeftHandThumb1
								{
									OFFSET 6.715286 -2.359680 3.363841
									CHANNELS 3 Xrotation Yrotation Zrotation
									JOINT LeftHandThumb2
									{
										OFFSET 2.507072 -1.447464 1.447461
										CHANNELS 3 Xrotation Yrotation Zrotation
										JOINT LeftHandThumb3
										{
											OFFSET 2.898338 -1.673355 1.673357
											CHANNELS 3 Xrotation Yrotation Zrotation
											End Site
											{
												OFFSET -0.295959 3.727692 -0.131651
											}
										}
									}
								}
								JOINT LeftHandIndex1
								{
									OFFSET 14.190811 -0.254547 3.840278
									CHANNELS 3 Xrotation Yrotation Zrotation
									JOINT LeftHandIndex2
									{
										OFFSET 3.551727 0.000000 -0.000000
										CHANNELS 3 Xrotation Yrotation Zrotation
										JOINT LeftHandIndex3
										{
											OFFSET 2.894196 0.000000 0.000000
											CHANNELS 3 Xrotation Yrotation Zrotation
											End Site
											{
												OFFSET -1.000603 2.690872 0.366626
											}
										}
									}
								}
								JOINT LeftHandMiddle1
								{
									OFFSET 13.776489 0.000000 0.000000
									CHANNELS 3 Xrotation Yrotation Zrotation
									JOINT LeftHandMiddle2
									{
										OFFSET 3.438232 0.000000 0.000000
										CHANNELS 3 Xrotation Yrotation Zrotation
										JOINT LeftHandMiddle3
										{
											OFFSET 3.691551 0.000000 0.000000
											CHANNELS 3 Xrotation Yrotation Zrotation
											End Site
											{
												OFFSET -1.082298 3.499527 0.457670
											}
										}
									}
								}
								JOINT LeftHandRing1
								{
									OFFSET 13.966164 -0.268127 -3.067488
									CHANNELS 3 Xrotation Yrotation Zrotation
									JOINT LeftHandRing2
									{
										OFFSET 3.162567 0.000000 0.000000
										CHANNELS 3 Xrotation Yrotation Zrotation
										JOINT LeftHandRing3
										{
											OFFSET 3.324348 0.000000 0.000000
											CHANNELS 3 Xrotation Yrotation Zrotation
											End Site
											{
												OFFSET -0.861900 3.184998 0.405154
											}
										}
									}
								}
								JOINT LeftHandPinky1
								{
									OFFSET 13.131393 -0.168503 -5.746925
									CHANNELS 3 Xrotation Yrotation Zrotation
									JOINT LeftHandPinky2
									{
										OFFSET 2.849182 0.000000 0.000000
										CHANNELS 3 Xrotation Yrotation Zrotation
										JOINT LeftHandPinky3
										{
											OFFSET 2.805038 0.000000 0.000000
											CHANNELS 3 Xrotation Yrotation Zrotation
											End Site
											{
												OFFSET -0.882500 2.642609 0.325652
											}
										}
									}
								}
							}
							JOINT Left_Sleeve
							{
								OFFSET 6.592125 -0.646545 0.805568
								CHANNELS 3 Xrotation Yrotation Zrotation
								End Site
								{
									OFFSET -0.000179 20.275787 -0.000000
								}
							}
						}
					}
				}
				JOINT RightShoulder
				{
					OFFSET -5.731700 15.108002 -2.763700
					CHANNELS 3 Xrotation Yrotation Zrotation
					JOINT RightArm
					{
						OFFSET -9.825497 2.506317 -1.597400
						CHANNELS 3 Xrotation Yrotation Zrotation
						JOINT RightForeArm
						{
							OFFSET -21.966242 0.000000 0.000000
							CHANNELS 3 Xrotation Yrotation Zrotation
							JOINT RightHand
							{
								OFFSET -33.879032 0.000000 0.000000
								CHANNELS 3 Xrotation Yrotation Zrotation
								JOINT RightHandThumb1
								{
									OFFSET -6.715286 -2.359680 3.363841
									CHANNELS 3 Xrotation Yrotation Zrotation
									JOINT RightHandThumb2
									{
										OFFSET -2.507072 -1.447464 1.447461
										CHANNELS 3 Xrotation Yrotation Zrotation
										JOINT RightHandThumb3
										{
											OFFSET -2.898338 -1.673355 1.673357
											CHANNELS 3 Xrotation Yrotation Zrotation
											End Site
											{
												OFFSET 0.295959 3.727692 -0.131651
											}
										}
									}
								}
								JOINT RightHandIndex1
								{
									OFFSET -14.190811 -0.254547 3.840278
									CHANNELS 3 Xrotation Yrotation Zrotation
									JOINT RightHandIndex2
									{
										OFFSET -3.551727 0.000000 -0.000000
										CHANNELS 3 Xrotation Yrotation Zrotation
										JOINT RightHandIndex3
										{
											OFFSET -2.894196 0.000000 0.000000
											CHANNELS 3 Xrotation Yrotation Zrotation
											End Site
											{
												OFFSET 1.000603 2.690872 0.366626
											}
										}
									}
								}
								JOINT RightHandMiddle1
								{
									OFFSET -13.776489 0.000000 0.000000
									CHANNELS 3 Xrotation Yrotation Zrotation
									JOINT RightHandMiddle2
									{
										OFFSET -3.438232 0.000000 0.000000
										CHANNELS 3 Xrotation Yrotation Zrotation
										JOINT RightHandMiddle3
										{
											OFFSET -3.691551 0.000000 0.000000
											CHANNELS 3 Xrotation Yrotation Zrotation
											End Site
											{
												OFFSET 1.082298 3.499527 0.457670
											}
										}
									}
								}
								JOINT RightHandRing1
								{
									OFFSET -13.966164 -0.268127 -3.067488
									CHANNELS 3 Xrotation Yrotation Zrotation
									JOINT RightHandRing2
									{
										OFFSET -3.162567 0.000000 0.000000
										CHANNELS 3 Xrotation Yrotation Zrotation
										JOINT RightHandRing3
										{
											OFFSET -3.324348 0.000000 0.000000
											CHANNELS 3 Xrotation Yrotation Zrotation
											End Site
											{
												OFFSET 0.861900 3.184998 0.405154
											}
										}
									}
								}
								JOINT RightHandPinky1
								{
									OFFSET -13.131393 -0.168503 -5.746925
									CHANNELS 3 Xrotation Yrotation Zrotation
									JOINT RightHandPinky2
									{
										OFFSET -2.849182 0.000000 0.000000
										CHANNELS 3 Xrotation Yrotation Zrotation
										JOINT RightHandPinky3
										{
											OFFSET -2.805038 0.000000 0.000000
											CHANNELS 3 Xrotation Yrotation Zrotation
											End Site
											{
												OFFSET 0.882500 2.642609 0.325652
											}
										}
									}
								}
							}
							JOINT Right_Sleeve
							{
								OFFSET -6.592125 -0.646545 0.805568
								CHANNELS 3 Xrotation Yrotation Zrotation
								End Site
								{
									OFFSET 0.000179 20.275787 -0.000000
								}
							}
						}
					}
				}
				JOINT Bind_Right_JacketString
				{
					OFFSET -3.534800 11.969597 7.200700
					CHANNELS 3 Xrotation Yrotation Zrotation
					JOINT Bind_Right_JacketString1
					{
						OFFSET -0.319900 -6.102600 2.794100
						CHANNELS 3 Xrotation Yrotation Zrotation
						End Site
						{
							OFFSET 0.000000 6.719452 0.000000
						}
					}
				}
				JOINT Bind_Left_JacketString
				{
					OFFSET 2.904800 11.969597 7.200700
					CHANNELS 3 Xrotation Yrotation Zrotation
					JOINT Bind_Left_JacketString1
					{
						OFFSET 0.364800 -5.904503 3.186800
						CHANNELS 3 Xrotation Yrotation Zrotation
						End Site
						{
							OFFSET 0.000000 6.719513 0.000000
						}
					}
				}
				JOINT HairE
				{
					OFFSET 5.915200 17.612701 -11.592200
					CHANNELS 3 Xrotation Yrotation Zrotation
					JOINT HairE1
					{
						OFFSET 0.289200 -7.171898 -1.284500
						CHANNELS 3 Xrotation Yrotation Zrotation
						End Site
						{
							OFFSET 0.000000 7.291756 0.000000
						}
					}
				}
				JOINT HairF
				{
					OFFSET -0.864800 17.612701 -11.592200
					CHANNELS 3 Xrotation Yrotation Zrotation
					JOINT HairF1
					{
						OFFSET 0.000000 -14.087097 -2.127501
						CHANNELS 3 Xrotation Yrotation Zrotation
						End Site
						{
							OFFSET 0.000000 14.246841 0.000000
						}
					}
				}
				JOINT HairG
				{
					OFFSET -8.087700 17.612701 -11.592200
					CHANNELS 3 Xrotation Yrotation Zrotation
					JOINT HairG1
					{
						OFFSET -0.293600 -6.081398 -0.910100
						CHANNELS 3 Xrotation Yrotation Zrotation
						End Site
						{
							OFFSET 0.000000 6.156120 0.000000
						}
					}
				}
			}
		}
	}
	JOINT Pouch
	{
		OFFSET 0.000000 4.394501 10.847300
		CHANNELS 3 Xrotation Yrotation Zrotation
		End Site
		{
			OFFSET 0.000000 21.880577 0.000000
		}
	}
	JOINT Bag
	{
		OFFSET -13.229000 4.813004 -0.593300
		CHANNELS 3 Xrotation Yrotation Zrotation
		End Site
		{
			OFFSET 0.000000 21.880577 0.000000
		}
	}
	JOINT OccupyGuyFacialAnim_Joint
	{
		OFFSET 1.000000 -70.206398 -1.655000
		CHANNELS 3 Xrotation Yrotation Zrotation
		End Site
		{
			OFFSET 0.000000 21.880577 0.000000
		}
	}
}
MOTION
Frames: 4
Frame Time: 0.033333
3.178621 68.517479 13.504016 -13.214164 -54.789766 -4.483036 0.000000 0.000004 0.000000 -10.007299 8.902309 3.910805 21.789994 1.093241 1.024334 -3.001103 0.671163 -8.362703 -0.000000 0.000003 0.000000 -0.000000 0.000003 0.000002 -5.888463 0.483626 -7.635734 41.663471 8.475338 -2.184037 -26.939115 1.228580 -4.421805 -0.000000 0.000001 0.000000 -0.000001 0.000001 -0.000000 6.572476 0.989161 -2.096135 4.604150 0.140723 1.091653 4.600831 0.173303 1.094722 -3.198311 5.082316 -4.546099 -4.701686 20.455932 -3.810461 -0.000000 0.000001 0.000000 -0.000000 0.000001 0.000000 -0.000000 0.000001 0.000000 -0.000000 0.000001 0.000000 0.000000 0.000001 0.000000 -0.000000 0.000001 0.000000 0.000000 0.000001 0.000000 -0.000000 0.000001 0.000000 -0.000000 0.000001 0.000000 0.614605 -1.698607 -11.287506 31.558066 -3.674544 -52.343886 -0.000142 -108.092586 -0.000147 -0.204552 -5.822496 4.808443 0.924038 16.710758 13.560136 1.327592 -0.224448 -1.043203 -0.000001 0.000001 0.000005 0.000041 0.162186 -0.008394 0.001763 0.156598 -1.297795 0.000003 0.000003 0.000002 0.039483 -0.887983 3.262980 0.020157 0.527295 -4.373742 0.000003 0.000002 -0.000001 0.014485 -1.439359 0.509883 0.076030 1.022424 -8.504235 0.000002 0.000001 0.000002 0.020920 -0.787543 1.822943 0.138292 -2.653166 -12.204639 0.000001 -0.000001 -0.000002 0.000002 -0.000001 -0.000002 0.563557 7.401683 10.376322 34.654529 43.921040 26.729414 -0.000084 77.625148 0.000094 31.350900 14.432347 -15.056489 -1.635154 -4.071092 -3.378643 4.637201 -8.634126 -0.225399 0.000004 -0.000001 0.000000 0.027553 -0.619681 5.091775 0.249599 -1.849827 15.367905 -0.000002 0.000001 0.000001 0.027551 -0.619683 5.091776 0.249604 -1.849830 15.367900 0.000001 -0.000002 -0.000003 0.027558 -0.619689 5.091764 0.249604 -1.849828 15.367903 0.000001 -0.000003 0.000001 0.027552 -0.619677 5.091776 0.249602 -1.849836 15.367903 0.000002 0.000001 -0.000003 0.000002 -0.000000 0.000001 0.000000 0.000001 -0.000000 0.000001 0.000001 -0.000000 0.000000 0.000001 -0.000000 0.000000 0.000001 -0.000000 0.000000 0.000001 -0.000000 0.000001 0.000001 -0.000000 0.000000 0.000001 -0.000000 0.000000 0.000001 -0.000000 0.000000 0.000001 -0.000000 0.000001 0.000001 -0.000000 0.000000 0.000004 0.000000 0.000000 0.000004 0.000000 0.000000 0.000004 0.000000 
3.557518 68.591843 14.255922 -16.933328 -66.415066 -7.302412 0.000000 0.000001 -0.000000 -7.113809 13.330344 2.691482 21.043268 7.972632 1.154060 -4.386347 0.869578 -9.302945 0.000000 0.000002 0.000000 -0.000002 -0.000002 -0.000000 -10.230564 -2.310795 -9.247342 43.542104 -3.166727 -2.565286 -27.156649 0.948207 -3.167423 -0.000000 -0.000000 -0.000000 -0.000000 -0.000000 -0.000001 7.520139 0.403053 -4.206739 4.099423 0.056714 1.142918 4.098343 0.103540 1.143368 -6.721263 4.311108 -3.099028 -1.689303 15.404614 -3.475705 0.000000 -0.000000 -0.000000 0.000000 -0.000000 -0.000000 0.000000 -0.000000 0.000000 0.000000 -0.000000 -0.000000 0.000000 0.000001 0.000000 0.000000 -0.000000 -0.000000 0.000000 0.000001 0.000000 0.000000 -0.000000 -0.000000 0.000000 -0.000000 -0.000000 0.598181 -2.675035 -11.360179 27.753830 -8.452549 -51.005015 -0.000126 -106.727156 -0.000131 -0.738108 -4.544109 7.462660 0.803465 16.565229 13.739119 0.965898 -0.111071 -1.049984 0.000003 -0.000002 0.000001 0.044151 0.787605 -5.629036 0.000004 0.018496 -0.153244 0.000001 0.000003 0.000000 0.000063 0.043616 -0.069909 0.010765 0.385597 -3.196905 -0.000002 0.000001 0.000001 -0.000469 -0.153246 -0.172403 0.037025 0.714575 -5.932094 -0.000000 -0.000002 -0.000000 -0.025180 0.642019 1.929432 0.077443 -2.969532 -9.537944 -0.000003 -0.000001 -0.000001 0.000001 0.000000 -0.000001 0.593802 5.975867 9.458764 33.804850 43.877299 27.730964 0.000013 74.703152 -0.000034 29.995906 11.487924 -11.251017 -1.675074 -3.985300 -3.947141 4.637202 -8.634128 -0.225399 -0.000000 -0.000001 0.000000 0.033713 -0.685248 5.632358 0.276786 -1.945989 16.188595 -0.000000 0.000000 -0.000003 0.033713 -0.685247 5.632359 0.276784 -1.945992 16.188598 0.000003 -0.000000 -0.000001 0.033714 -0.685237 5.632357 0.276779 -1.946002 16.188600 -0.000002 -0.000001 -0.000002 0.033707 -0.685242 5.632365 0.276785 -1.945989 16.188605 -0.000004 0.000001 -0.000003 0.000003 0.000001 0.000000 0.000001 -0.000000 -0.000001 0.000001 -0.000000 -0.000000 0.000001 -0.000000 -0.000000 0.000001 -0.000000 -0.000000 0.000001 -0.000000 -0.000001 0.000001 -0.000000 -0.000000 0.000001 -0.000000 -0.000000 0.000001 -0.000000 -0.000000 0.000001 -0.000000 -0.000001 0.000001 -0.000000 -0.000000 0.000000 0.000001 -0.000000 0.000000 0.000001 -0.000000 0.000000 0.000001 -0.000000 
3.837987 68.609749 14.786107 -30.641318 -79.467188 -20.308912 -0.000000 0.000000 -0.000001 -3.779451 17.805933 1.100542 19.954099 9.601616 1.455044 -5.484125 7.172438 -10.454410 -0.000000 -0.000000 0.000000 0.000000 -0.000001 0.000001 -15.505994 -6.043728 -10.553663 44.860208 -10.231417 -2.842871 -25.326393 -1.854879 -2.263091 0.000000 -0.000000 0.000001 -0.000000 0.000000 -0.000000 8.824820 0.434567 -6.438690 2.765908 0.068130 1.571885 2.764691 0.124713 1.572675 -8.070577 3.019825 -3.186263 -0.093146 6.986175 -2.065432 0.000000 0.000002 0.000000 0.000000 0.000002 0.000000 0.000000 0.000002 -0.000000 0.000000 0.000002 0.000000 -0.000000 0.000002 0.000000 0.000000 0.000002 0.000000 -0.000000 0.000002 0.000000 0.000000 0.000002 0.000000 0.000000 0.000002 0.000000 0.572142 -3.345932 -13.635377 26.634374 -9.885032 -49.084663 -0.000179 -105.161800 -0.000171 -0.429596 -3.517282 10.192169 0.637389 16.365024 13.989801 1.132093 -0.178897 -1.050710 -0.000002 -0.000001 0.000002 0.047800 0.950882 -12.014374 0.000004 -0.000000 -0.000000 0.000001 0.000000 -0.000002 -0.080101 -0.427613 -5.907186 0.004521 0.250399 -2.075410 -0.000001 0.000002 -0.000001 -0.123847 -1.686963 -3.837927 0.006904 0.309080 -2.562010 0.000003 0.000001 -0.000001 -0.041289 -1.084335 -1.991867 0.031361 -3.288883 -6.866536 -0.000001 -0.000001 0.000001 0.000004 -0.000001 0.000001 0.610701 5.157238 7.233007 35.084704 45.549446 26.219262 0.000066 73.790802 -0.000071 30.492457 9.522721 -7.958964 -1.671442 -3.993240 -3.894602 4.637204 -8.634134 -0.225400 -0.000000 0.000001 0.000001 0.043881 -0.781627 6.427653 0.319275 -2.086657 17.396029 0.000002 0.000004 0.000001 0.043881 -0.781629 6.427650 0.319267 -2.086653 17.396034 0.000001 0.000000 -0.000001 0.043885 -0.781615 6.427648 0.319264 -2.086665 17.396032 -0.000002 0.000000 -0.000002 0.043889 -0.781625 6.427649 0.319271 -2.086670 17.396027 0.000000 0.000003 -0.000001 0.000000 -0.000002 0.000003 -0.000001 0.000000 0.000000 -0.000000 -0.000001 0.000000 -0.000001 0.000000 0.000000 -0.000001 0.000000 0.000000 -0.000001 0.000000 0.000000 -0.000000 -0.000001 -0.000000 -0.000001 0.000000 0.000000 -0.000001 0.000000 0.000000 -0.000001 0.000000 0.000000 -0.000000 -0.000001 -0.000000 -0.000000 0.000000 -0.000001 -0.000000 0.000000 -0.000001 -0.000000 0.000000 -0.000001 
4.011333 68.542099 15.065707 37.525394 -96.005644 48.281101 0.000000 0.000000 -0.000000 -0.921637 20.668303 -0.598811 19.742918 9.846979 1.861092 -6.378147 15.206574 -12.202024 0.000000 -0.000001 0.000000 0.000001 -0.000002 0.000000 -20.122909 -11.107041 -10.840017 44.783805 -10.203463 -3.417208 -24.113064 -9.746827 -4.069096 0.000000 0.000002 -0.000000 0.000002 0.000001 -0.000000 10.132222 1.374913 -8.607159 1.010884 0.200562 2.569011 0.999631 0.263792 2.565890 -6.725534 1.203575 -5.326047 -0.157317 -4.358298 0.344873 0.000000 -0.000000 0.000000 0.000000 -0.000000 0.000000 0.000000 -0.000000 -0.000000 0.000000 -0.000000 -0.000000 -0.000000 -0.000000 -0.000000 0.000000 -0.000000 -0.000000 -0.000000 -0.000000 -0.000000 0.000000 -0.000000 0.000000 0.000000 -0.000000 0.000000 0.502921 -4.508056 -18.228291 27.464367 -7.972234 -46.573274 0.000103 -103.575406 0.000089 0.911573 -3.788838 12.062573 0.450561 16.139322 14.275538 1.276560 -0.218189 -1.046538 0.000000 0.000001 -0.000000 -0.066497 0.734368 -16.000268 0.000001 -0.000004 0.000003 0.000002 0.000002 0.000002 -0.405487 -1.472632 -10.953052 0.003792 0.228581 -1.894414 0.000003 0.000003 -0.000001 -0.674859 -4.042082 -8.750821 0.001686 0.152953 -1.267502 -0.000003 -0.000000 0.000002 -0.597214 -3.686367 -8.396281 0.008963 -3.502494 -5.088054 -0.000004 -0.000001 -0.000001 0.000001 -0.000001 0.000001 0.631252 4.326001 4.062257 38.244589 47.902521 23.105135 0.000057 74.463870 -0.000076 33.084528 9.322337 -6.355461 -1.616118 -4.111207 -3.111935 4.637205 -8.634131 -0.225400 -0.000002 -0.000001 -0.000000 0.055224 -0.876408 7.211100 0.364008 -2.224333 18.585588 -0.000000 0.000000 0.000004 0.055225 -0.876386 7.211114 0.364008 -2.224351 18.585583 0.000006 -0.000000 -0.000001 0.055221 -0.876394 7.211106 0.364008 -2.224354 18.585582 -0.000000 -0.000001 0.000001 0.055224 -0.876401 7.211104 0.364011 -2.224348 18.585583 0.000001 0.000002 0.000001 -0.000000 0.000001 -0.000002 -0.000000 -0.000000 -0.000000 0.000000 0.000000 0.000000 -0.000000 -0.000000 -0.000001 -0.000000 -0.000000 -0.000001 -0.000000 -0.000000 -0.000000 0.000000 0.000000 0.000000 -0.000000 -0.000000 -0.000001 -0.000000 -0.000000 -0.000001 -0.000000 -0.000000 -0.000000 0.000000 0.000000 0.000000 0.000000 0.000000 -0.000000 0.000000 0.000000 -0.000000 0.000000 0.000000 -0.000000 
